<svg width="21" height="18" viewBox="0 0 21 18" fill="none" xmlns="http://www.w3.org/2000/svg">
<path fill-rule="evenodd" clip-rule="evenodd" d="M18.7773 0.429843C19.8652 -0.0282328 21.0315 0.891699 20.8394 2.05639L18.5705 15.8131C18.3517 17.1395 16.8949 17.9006 15.678 17.2396C14.6597 16.6865 13.1489 15.8352 11.7873 14.9455C11.1074 14.5012 9.02545 13.0766 9.28136 12.0625C9.50016 11.1954 13.0001 7.9375 15.0001 6C15.7857 5.23893 15.4279 4.79926 14.5001 5.5C12.1985 7.23826 8.50332 9.88119 7.28136 10.625C6.20323 11.2812 5.64031 11.3932 4.96886 11.2812C3.74273 11.0769 2.60596 10.7605 1.67788 10.3758C0.423505 9.85578 0.484606 8.13202 1.67703 7.62995L18.7773 0.429843Z" fill="#ffffff"/>
</svg>
