<svg width="20" height="20" viewBox="0 0 20 20" fill="none" xmlns="http://www.w3.org/2000/svg">
<path d="M7.73827 12.2627C9.76076 14.2852 11.692 14.5518 12.374 14.5769C13.4165 14.6153 14.4188 13.8283 14.8148 12.9042C14.9112 12.6792 14.8872 12.4085 14.7255 12.2014C14.1782 11.5005 13.4374 10.9983 12.7134 10.4984C12.4007 10.282 11.9705 10.349 11.7402 10.6555L11.1394 11.5706C11.0728 11.6721 10.9402 11.707 10.8348 11.6467C10.4284 11.4143 9.8357 11.018 9.40931 10.5916C8.98338 10.1657 8.61116 9.59975 8.40224 9.21946C8.34734 9.11954 8.37777 8.99599 8.4693 8.92801L9.39272 8.24223C9.66814 8.00383 9.71659 7.59887 9.51385 7.30228C9.06502 6.64569 8.54223 5.8112 7.78556 5.25926C7.57889 5.1085 7.31746 5.09158 7.10162 5.18408C6.17688 5.5804 5.38562 6.58294 5.42404 7.62695C5.44914 8.30891 5.71578 10.2402 7.73827 12.2627Z" fill="#ffffff"/>
<path fill-rule="evenodd" clip-rule="evenodd" d="M10 0C4.47715 0 0 4.47715 0 10C0 11.8896 0.52505 13.6594 1.43756 15.1683L0.545808 18.2002C0.320228 18.9672 1.03284 19.6798 1.79975 19.4542L4.83171 18.5624C6.34058 19.475 8.11039 20 10 20C15.5228 20 20 15.5228 20 10C20 4.47715 15.5228 0 10 0ZM2 10C2 5.58172 5.58172 2 10 2C14.4183 2 18 5.58172 18 10C18 14.4183 14.4183 18 10 18C8.42313 18 6.95564 17.5448 5.71817 16.759C5.36114 16.5323 4.91075 16.4545 4.47827 16.5817L2.97667 17.0233L3.41832 15.5217C3.54552 15.0892 3.46769 14.6389 3.24098 14.2818C2.4552 13.0444 2 11.5769 2 10Z" fill="#ffffff"/>
</svg>
